# xmcd
#
# Track frame offsets:
#	150
#	11807
#	23689
#	34456
#	44555
#	54896
#	67005
#	78892
#	88972
#	101872
#	111887
#	123984
#	134635
#	146168
#	155727
#	167000
#	178627
#	192600
#	202052
#	212738
#	224644
#	236935
#
# Disc length: 3310 seconds
#
# Revision: 0
# Processed by: cddbd v1.5.2PL0 Copyright (c) Steve Scherf et al.
# Submitted via: EZCDAudioConverter 2.0.4.1
#
DISCID=5f0cec16
DTITLE=Jan Howard - Through The Years CD 1
DYEAR=1900
DGENRE=
TTITLE0=Jan Howard - Pick Me Up On Your Way Down
TTITLE1=Jan Howard - Many Dreams Ago
TTITLE2=Jan Howard and Wynn Stewart - We'll Never Love Again
TTITLE3=Jan Howard and Wynn Stewart - Wrong Company
TTITLE4=Jan Howard - One You Slip Around With
TTITLE5=Jan Howard - I Fall To Pieces
TTITLE6=Jan Howard - If Your Conscience Can't Stop You
TTITLE7=Jan Howard - I've Got My Pride
TTITLE8=Jan Howard - World I Can't Live In
TTITLE9=Jan Howard - All Alone Again
TTITLE10=Jan Howard - Too Many Teardrops Too Late
TTITLE11=Jan Howard - Jealous Love
TTITLE12=Jan Howard - Careless Hands
TTITLE13=Jan Howard - Let Me Know
TTITLE14=Jan Howard - Ages And Ages Ago
TTITLE15=Jan Howard - Real Me
TTITLE16=Jan Howard - Looking Back
TTITLE17=Jan Howard - Example Of A Fool
TTITLE18=Jan Howard - Everybody Loves A Lover
TTITLE19=Jan Howard - They Listened While You Said Goodbye
TTITLE20=Jan Howard - What Makes A Man Wonder
TTITLE21=Jan Howard and Bill Anderson - I Know You're Married
EXTD=
EXTT0=
EXTT1=
EXTT2=
EXTT3=
EXTT4=
EXTT5=
EXTT6=
EXTT7=
EXTT8=
EXTT9=
EXTT10=
EXTT11=
EXTT12=
EXTT13=
EXTT14=
EXTT15=
EXTT16=
EXTT17=
EXTT18=
EXTT19=
EXTT20=
EXTT21=
PLAYORDER=
